<svg width="456" height="456" viewBox="0 0 456 456" fill="none" xmlns="http://www.w3.org/2000/svg">
<path d="M228,0C102.1,0,0,102.1,0,228s102.1,228,228,228s228-102.1,228-228S353.9,0,228,0z M228,418.8
	C122.3,418.8,37.2,333.7,37.2,228S122.3,37.2,228,37.2S418.8,122.3,418.8,228S333.7,418.8,228,418.8z" fill="white"/>
<path d="M228,65C137.8,65,65,137.8,65,228s72.8,163,163,163s163-72.8,163-163S318.2,65,228,65z M228,353.8
	C155.9,353.8,102.2,300.1,102.2,228S155.9,102.2,228,102.2S353.8,155.9,353.8,228S300.1,353.8,228,353.8z" fill="white"/>
</svg>
